<svg width="18" height="18" viewBox="0 0 18 18" fill="none" xmlns="http://www.w3.org/2000/svg">
<path d="M8.89989 2.08438C8.7337 2.08321 8.57059 2.12916 8.42946 2.21689C8.28832 2.30463 8.17494 2.43057 8.10245 2.58011L6.38475 6.06179L2.54262 6.61982C2.37823 6.64369 2.22381 6.71309 2.09682 6.82016C1.96983 6.92724 1.87534 7.06771 1.82403 7.2257C1.77273 7.38368 1.76666 7.55287 1.80652 7.71413C1.84637 7.87538 1.93056 8.02227 2.04956 8.13816L4.82992 10.8473L4.1731 14.6743C4.14505 14.838 4.16336 15.0062 4.22594 15.1601C4.28853 15.3139 4.3929 15.4471 4.52725 15.5447C4.66161 15.6423 4.82058 15.7004 4.98621 15.7123C5.15184 15.7243 5.3175 15.6897 5.46449 15.6124L8.89989 13.8057V2.08438Z" fill="#FDBB11"/>
</svg>
