<svg width="16" height="16" viewBox="0 0 16 16" fill="none" xmlns="http://www.w3.org/2000/svg">
<path d="M8.54679 3.72001L8.00012 4.26801L7.45079 3.71867C6.77873 3.0467 5.86726 2.66923 4.91689 2.66929C3.96651 2.66935 3.05509 3.04695 2.38312 3.719C1.71115 4.39106 1.33368 5.30254 1.33374 6.25291C1.3338 7.20328 1.7114 8.1147 2.38346 8.78667L7.64679 14.05C7.74054 14.1436 7.86762 14.1962 8.00012 14.1962C8.13262 14.1962 8.25971 14.1436 8.35346 14.05L13.6215 8.78534C14.2927 8.11322 14.6697 7.20211 14.6696 6.2522C14.6695 5.30229 14.2922 4.39128 13.6208 3.71934C13.2877 3.38603 12.8922 3.12163 12.4569 2.94123C12.0216 2.76083 11.555 2.66798 11.0838 2.66798C10.6126 2.66798 10.146 2.76083 9.71068 2.94123C9.27537 3.12163 8.87987 3.3867 8.54679 3.72001ZM12.9121 8.07934L8.00012 12.99L3.09012 8.08001C2.84814 7.84059 2.65587 7.5557 2.52434 7.24173C2.39282 6.92776 2.32465 6.5909 2.32375 6.25049C2.32284 5.91009 2.38922 5.57286 2.51907 5.2582C2.64892 4.94353 2.83968 4.65763 3.08038 4.41693C3.32108 4.17623 3.60698 3.98547 3.92165 3.85562C4.23631 3.72577 4.57354 3.65939 4.91394 3.6603C5.25435 3.6612 5.59121 3.72937 5.90518 3.86089C6.21915 3.99242 6.50404 4.18469 6.74346 4.42667L7.64879 5.33134C7.69589 5.3785 7.75195 5.41576 7.81366 5.44094C7.87537 5.46612 7.94149 5.47871 8.00814 5.47796C8.07479 5.47721 8.14061 5.46315 8.20175 5.4366C8.26288 5.41005 8.31809 5.37154 8.36412 5.32334L9.25346 4.42667C9.74366 3.97039 10.3917 3.72201 11.0613 3.73379C11.7309 3.74558 12.3698 4.0166 12.8437 4.48984C13.3176 4.96309 13.5894 5.60167 13.602 6.27125C13.6147 6.94083 13.3671 7.58922 12.9115 8.08001" fill="#0C214D"/>
</svg>
